HIERARCHY
ROOT hip
{
	OFFSET 0.000000 0.000000 0.000000
	CHANNELS 6 Xposition Yposition Zposition Xrotation Zrotation Yrotation 
	JOINT abdomen
	{
		OFFSET 0.000000 3.422050 0.000000
		CHANNELS 3 Xrotation Zrotation Yrotation 
		JOINT chest
		{
			OFFSET 0.000000 8.486693 -0.684411
			CHANNELS 3 Xrotation Zrotation Yrotation 
			JOINT neck
			{
				OFFSET 0.000000 10.266162 -0.273764
				CHANNELS 3 Xrotation Zrotation Yrotation 
				JOINT head
				{
					OFFSET 0.000000 3.148285 0.000000
					CHANNELS 3 Xrotation Zrotation Yrotation 
					End Site
					{
						OFFSET 0.000000 3.148289 0.000000
					}
				}
			}
			JOINT lCollar
			{
				OFFSET 3.422053 6.707223 -0.821293
				CHANNELS 3 Yrotation Zrotation Xrotation 
				JOINT lShldr
				{
					OFFSET 3.285171 0.000000 0.000000
					CHANNELS 3 Zrotation Yrotation Xrotation 
					JOINT lForeArm
					{
						OFFSET 10.129278 0.000000 0.000000
						CHANNELS 3 Yrotation Zrotation Xrotation 
						JOINT lHand
						{
							OFFSET 8.486692 0.000000 0.000000
							CHANNELS 3 Zrotation Yrotation Xrotation 
							End Site
							{
								OFFSET 4.106464 0.000000 0.000000
							}
						}
					}
				}
			}
			JOINT rCollar
			{
				OFFSET -3.558935 6.707223 -0.821293
				CHANNELS 3 Yrotation Zrotation Xrotation 
				JOINT rShldr
				{
					OFFSET -3.148289 0.000000 0.000000
					CHANNELS 3 Zrotation Yrotation Xrotation 
					JOINT rForeArm
					{
						OFFSET -10.266159 0.000000 0.000000
						CHANNELS 3 Yrotation Zrotation Xrotation 
						JOINT rHand
						{
							OFFSET -8.349810 0.000000 0.000000
							CHANNELS 3 Zrotation Yrotation Xrotation 
							End Site
							{
								OFFSET -4.106464 0.000000 0.000000
							}
						}
					}
				}
			}
		}
	}
	JOINT lThigh
	{
		OFFSET 5.338403 -1.642589 1.368821
		CHANNELS 3 Xrotation Zrotation Yrotation 
		JOINT lShin
		{
			OFFSET -2.053232 -20.121670 0.000000
			CHANNELS 3 Xrotation Zrotation Yrotation 
			JOINT lFoot
			{
				OFFSET 0.000000 -19.300380 -1.231939
				CHANNELS 3 Xrotation Yrotation Zrotation 
				End Site
				{
					OFFSET 0.000000 -2.463878 4.653993
				}
			}
		}
	}
	JOINT rThigh
	{
		OFFSET -5.338403 -1.642589 1.368821
		CHANNELS 3 Xrotation Zrotation Yrotation 
		JOINT rShin
		{
			OFFSET 2.053232 -20.121670 0.000000
			CHANNELS 3 Xrotation Zrotation Yrotation 
			JOINT rFoot
			{
				OFFSET 0.000000 -19.300380 -1.231939
				CHANNELS 3 Xrotation Yrotation Zrotation 
				End Site
				{
					OFFSET 0.000000 -2.463878 4.653993
				}
			}
		}
	}
}
MOTION
Frames: 11
Frame Time: 0.033264
0.000000 41.453362 0.000000 104.884956 -6.998476 177.442230 49.113388 -1.526372 -2.009358 20.266586 0.599169 -1.375092 -29.528759 0.000000 0.000000 -0.568282 0.319977 -0.001587 10.241111 -31.115747 -14.689236 -53.970520 -20.376902 24.127224 -87.157135 -28.060995 -11.630317 22.822048 -3.534855 0.085317 8.766791 -0.746785 -12.649482 12.933878 62.265720 -30.058132 5.991271 6.610029 -14.682859 40.501335 10.463129 10.122787 -97.200104 39.037983 7.461452 106.124779 4.292356 -1.504485 -10.226488 5.947521 -1.072088 -97.725441 -43.467381 -3.960311 110.199234 -4.936211 1.179604 -13.779125 -1.407178 4.241699 
0.000000 41.576965 0.000000 66.660217 -4.646338 179.923416 49.615410 -1.525976 -2.003926 20.762535 0.599093 -1.366946 -29.253502 0.000000 0.000000 -0.568282 0.319977 -0.001587 10.098328 -31.077976 -15.007041 -53.970516 -20.376900 24.127224 -87.917831 -27.957733 -12.034898 22.602766 -3.730185 0.573882 8.897110 -0.958803 -12.982948 12.824373 62.160336 -30.157011 5.991271 6.610029 -14.682859 40.393692 10.753288 10.099375 -96.320908 39.105793 7.735831 105.856049 4.280259 -1.524225 -10.358951 5.846306 -1.096337 -96.795799 -43.605915 -4.336734 109.909187 -4.922681 1.202921 -13.906848 -1.265202 4.220282 
0.000000 41.700569 0.000000 48.943611 -3.117825 -179.566467 50.117390 -1.525627 -1.998490 21.258442 0.598947 -1.358800 -28.978260 0.000000 0.000000 -0.568282 0.319977 -0.001587 9.955852 -31.039539 -15.324600 -53.970516 -20.376900 24.127224 -88.676834 -27.849754 -12.437436 22.381800 -3.923622 1.063256 9.026195 -1.171564 -13.315936 12.715634 62.054893 -30.255136 5.991271 6.610029 -14.682859 40.285828 11.043396 10.075386 -95.440636 39.170322 8.011734 105.587349 4.268072 -1.543908 -10.491429 5.745146 -1.120817 -95.862968 -43.739960 -4.716998 109.619164 -4.909036 1.226169 -14.034509 -1.123179 4.199182 
0.000000 41.824173 0.000000 39.180721 -2.229105 -179.493668 50.619316 -1.525327 -1.993053 21.754293 0.598730 -1.350657 -28.703016 0.000000 0.000000 -0.568282 0.319977 -0.001587 9.813688 -31.000422 -15.641904 -53.970516 -20.376900 24.127224 -89.434029 -27.737103 -12.837833 22.159157 -4.115139 1.553421 9.154042 -1.385055 -13.648451 12.607662 61.949371 -30.352493 5.991271 6.610029 -14.682859 40.177750 11.333447 10.050818 -94.559425 39.231544 8.289063 105.318649 4.255791 -1.563532 -10.623927 5.644045 -1.145527 -94.927094 -43.869484 -5.100999 109.329163 -4.895273 1.249345 -14.162107 -0.981112 4.178400 
0.000000 41.947777 0.000000 33.078800 -1.671979 -179.525375 51.121159 -1.525074 -1.987613 22.250071 0.598443 -1.342518 -28.427794 0.000000 0.000000 -0.568282 0.319977 -0.001587 9.671847 -30.960640 -15.958951 -53.970516 -20.376900 24.127224 -90.189301 -27.619818 -13.235979 21.934874 -4.304713 2.044355 9.280646 -1.599260 -13.980478 12.500430 61.843739 -30.449080 5.991271 6.610029 -14.682859 40.069435 11.623434 10.025668 -93.677368 39.289417 8.567712 105.049980 4.243420 -1.583097 -10.756443 5.543002 -1.170468 -93.988327 -43.994408 -5.488575 109.039185 -4.881394 1.272449 -14.289651 -0.839003 4.157938 
0.000000 42.071381 0.000000 28.924944 -1.296003 -179.580795 51.622913 -1.524868 -1.982173 22.745750 0.598085 -1.334382 -28.152584 0.000000 0.000000 -0.568282 0.319977 -0.001587 9.530330 -30.920172 -16.275724 -53.970516 -20.376900 24.127224 -90.942574 -27.497953 -13.631782 21.708967 -4.492317 2.536036 9.406004 -1.814166 -14.312029 12.393955 61.738033 -30.544916 5.991271 6.610029 -14.682859 39.960880 11.913354 9.999933 -92.794609 39.343941 8.847589 104.781311 4.230958 -1.602603 -10.888980 5.442020 -1.195638 -93.046860 -44.114677 -5.879583 108.749245 -4.867401 1.295481 -14.417131 -0.696853 4.137791 
0.000000 42.194984 0.000000 25.921749 -1.027166 -179.637756 52.124554 -1.524711 -1.976733 23.241327 0.597658 -1.326253 -27.877398 0.000000 0.000000 -0.568282 0.319977 -0.001587 9.389147 -30.879057 -16.592232 -53.970520 -20.376902 24.127226 -91.693687 -27.371534 -14.025126 21.481457 -4.677927 3.028446 9.530111 -2.029758 -14.643098 12.288211 61.632248 -30.640024 5.991271 6.610029 -14.682859 39.852081 12.203198 9.973610 -91.911308 39.395100 9.128593 104.512695 4.218407 -1.622048 -11.021534 5.341099 -1.221038 -92.102852 -44.230270 -6.273897 108.459343 -4.853292 1.318439 -14.544557 -0.554662 4.117962 
0.000000 42.318588 0.000000 23.652060 -0.826179 -179.690109 52.626057 -1.524601 -1.971293 23.736767 0.597160 -1.318128 -27.602226 0.000000 0.000000 -0.568282 0.319977 -0.001587 9.248302 -30.837267 -16.908455 -53.970516 -20.376900 24.127224 -92.442574 -27.240631 -14.415931 21.252369 -4.861519 3.521559 9.652964 -2.246023 -14.973680 12.183198 61.526363 -30.734379 5.991271 6.610029 -14.682859 39.743023 12.492960 9.946692 -91.027573 39.442867 9.410614 104.244118 4.205766 -1.641432 -11.154108 5.240240 -1.246668 -91.156487 -44.341099 -6.671340 108.169472 -4.839069 1.341322 -14.671926 -0.412434 4.098451 
0.000000 42.442192 0.000000 21.877649 -0.670593 -179.736557 53.127399 -1.524539 -1.965854 24.232063 0.596592 -1.310012 -27.327087 0.000000 0.000000 -0.568282 0.319977 -0.001587 9.107802 -30.794813 -17.224390 -53.970516 -20.376900 24.127224 -93.189140 -27.105280 -14.804095 21.021729 -5.043068 4.015355 9.774562 -2.462947 -15.303783 12.078917 61.420422 -30.828018 5.991271 6.610029 -14.682859 39.633739 12.782645 9.919188 -90.143555 39.487255 9.693563 103.975533 4.193034 -1.660754 -11.286701 5.139442 -1.272526 -90.207932 -44.447147 -7.071770 107.879639 -4.824733 1.364131 -14.799237 -0.270169 4.079257 
0.000000 42.565796 0.000000 20.452984 -0.546765 -179.777313 53.628567 -1.524523 -1.960415 24.727190 0.595954 -1.301903 -27.051970 0.000000 0.000000 -0.568282 0.319977 -0.001587 8.967656 -30.751701 -17.540028 -53.970516 -20.376900 24.127224 -93.933266 -26.965530 -15.189527 20.789560 -5.222554 4.509809 9.894895 -2.680513 -15.633400 11.975336 61.314384 -30.920929 5.991271 6.610029 -14.682859 39.524193 13.072235 9.891085 -89.259369 39.528221 9.977322 103.707008 4.180215 -1.680015 -11.419311 5.038709 -1.298614 -89.257408 -44.548374 -7.475014 107.589844 -4.810282 1.386862 -14.926494 -0.127869 4.060380 
0.000000 42.689400 0.000000 19.284248 -0.445968 -179.813049 54.129559 -1.524556 -1.954980 25.222137 0.595247 -1.293803 -26.776888 0.000000 0.000000 -0.568282 0.319977 -0.001587 8.827867 -30.707930 -17.855360 -53.970516 -20.376900 24.127224 -94.674866 -26.821449 -15.572138 20.555887 -5.399951 5.004898 10.013966 -2.898710 -15.962531 11.872475 61.208290 -31.013147 5.991271 6.610029 -14.682859 39.414394 13.361734 9.862387 -88.375206 39.565788 10.261788 103.438522 4.167307 -1.699213 -11.551945 4.938042 -1.324930 -88.305023 -44.644711 -7.880918 107.300125 -4.795721 1.409518 -15.053696 0.014465 4.041821 
